<svg width="19" height="18" viewBox="0 0 19 18" fill="none" xmlns="http://www.w3.org/2000/svg">
<path d="M6.7602 10.2181L5.7 1.85715L4.6398 10.2172H0.95C0.4256 10.2172 0 9.802 0 9.28995C0.00300683 9.04084 0.104727 8.8031 0.282835 8.62891C0.460943 8.45472 0.700886 8.35831 0.95 8.36085H2.9602L3.8152 1.62915C3.9425 0.610749 4.8925 -0.111251 5.93275 0.0141494C6.79725 0.118649 7.47745 0.783649 7.5848 1.62915L8.43885 8.36085H10.3142L11.4 15.2446L12.4849 8.3618H18.05C18.5744 8.3618 19 8.7779 19 9.2909C19 9.8039 18.5744 10.219 18.05 10.219H14.1151L13.2782 15.5267C13.2124 15.9205 13.0231 16.2832 12.7375 16.5623C12.4519 16.8414 12.085 17.0223 11.6898 17.079C10.6524 17.2358 9.6824 16.5403 9.52185 15.5267L8.68585 10.219L6.7602 10.2181Z" fill="#1476FE"/>
</svg>
