<svg width="19" height="19" viewBox="0 0 19 19" fill="none" xmlns="http://www.w3.org/2000/svg">
<path d="M9.5 0C10.7598 0 11.968 0.500445 12.8588 1.39124C13.7496 2.28204 14.25 3.49022 14.25 4.75C14.25 6.00978 13.7496 7.21796 12.8588 8.10876C11.968 8.99956 10.7598 9.5 9.5 9.5C8.24022 9.5 7.03204 8.99956 6.14124 8.10876C5.25044 7.21796 4.75 6.00978 4.75 4.75C4.75 3.49022 5.25044 2.28204 6.14124 1.39124C7.03204 0.500445 8.24022 0 9.5 0ZM9.5 2.375C8.87011 2.375 8.26602 2.62522 7.82062 3.07062C7.37522 3.51602 7.125 4.12011 7.125 4.75C7.125 5.37989 7.37522 5.98398 7.82062 6.42938C8.26602 6.87478 8.87011 7.125 9.5 7.125C10.1299 7.125 10.734 6.87478 11.1794 6.42938C11.6248 5.98398 11.875 5.37989 11.875 4.75C11.875 4.12011 11.6248 3.51602 11.1794 3.07062C10.734 2.62522 10.1299 2.375 9.5 2.375ZM9.5 10.6875C12.6706 10.6875 19 12.2669 19 15.4375V19H0V15.4375C0 12.2669 6.32937 10.6875 9.5 10.6875ZM9.5 12.9437C5.97312 12.9437 2.25625 14.6775 2.25625 15.4375V16.7438H16.7438V15.4375C16.7438 14.6775 13.0269 12.9437 9.5 12.9437Z" fill="#1476FE"/>
</svg>
