<svg width="19" height="16" viewBox="0 0 19 16" fill="none" xmlns="http://www.w3.org/2000/svg">
<path d="M1.9 15.2C1.3775 15.2 0.930367 15.0141 0.5586 14.6423C0.186833 14.2706 0.000633333 13.8231 0 13.3V1.9C0 1.3775 0.1862 0.930366 0.5586 0.5586C0.931 0.186833 1.37813 0.000633333 1.9 0H7.6L9.5 1.9H17.1C17.6225 1.9 18.0699 2.0862 18.4423 2.4586C18.8147 2.831 19.0006 3.27813 19 3.8V13.3C19 13.8225 18.8141 14.2699 18.4423 14.6423C18.0706 15.0147 17.6231 15.2006 17.1 15.2H1.9ZM1.9 13.3H17.1V3.8H8.71625L6.81625 1.9H1.9V13.3Z" fill="#1476FE"/>
</svg>
