<svg width="21" height="21" viewBox="0 0 21 21" fill="none" xmlns="http://www.w3.org/2000/svg">
<path d="M5.75 1H4.8C3.47 1 2.805 1 2.29675 1.25887C1.84988 1.48657 1.48657 1.84988 1.25887 2.29675C1 2.805 1 3.47 1 4.8V16.2C1 17.53 1 18.195 1.25887 18.7033C1.48657 19.1501 1.84988 19.5134 2.29675 19.7411C2.80381 20 3.46881 20 4.79644 20H5.75M5.75 1H16.2C17.53 1 18.195 1 18.7021 1.25887C19.1497 1.48687 19.5131 1.84906 19.7411 2.29675C20 2.80381 20 3.46881 20 4.79644V16.2048C20 17.5324 20 18.1962 19.7411 18.7033C19.5131 19.1503 19.1494 19.5136 18.7021 19.7411C18.195 20 17.5312 20 16.2036 20H5.75M5.75 1V20M10.5 9.3125H15.25M10.5 5.75H15.25" stroke="#1476FE" stroke-width="1.5" stroke-linecap="round" stroke-linejoin="round"/>
</svg>
