<svg width="19" height="19" viewBox="0 0 19 19" fill="none" xmlns="http://www.w3.org/2000/svg">
<path d="M9.5 1.72727C7.78847 1.72669 6.1246 2.29103 4.76658 3.33274C3.40857 4.37444 2.43235 5.83524 1.98942 7.48847C1.54648 9.14169 1.6616 10.8949 2.31691 12.476C2.97222 14.0571 4.13107 15.3777 5.61364 16.2329L6.36068 16.6647L5.49618 18.1605L4.74827 17.7287C3.30419 16.8946 2.10514 15.695 1.27164 14.2505C0.438139 12.8061 -0.000435595 11.1677 3.24644e-07 9.5C3.24644e-07 4.25341 4.25341 0 9.5 0C10.539 0 11.5399 0.166682 12.4778 0.476727L13.2983 0.747045L12.7568 2.38795L11.9363 2.11677C11.1501 1.85805 10.3277 1.72656 9.5 1.72727ZM17.2563 2.94845L12.47 7.73473C12.8995 8.45754 13.0506 9.31217 12.8951 10.1384C12.7395 10.9647 12.288 11.7058 11.6251 12.223C10.9622 12.7402 10.1334 12.9978 9.29414 12.9477C8.45486 12.8975 7.66268 12.543 7.06607 11.9506C6.46946 11.3582 6.10938 10.5686 6.0533 9.72967C5.99723 8.89077 6.24903 8.06022 6.76149 7.39368C7.27395 6.72714 8.01191 6.27037 8.83705 6.10898C9.66218 5.94759 10.5179 6.09266 11.2437 6.517L16.0351 1.72727L17.2563 2.94845ZM18.253 5.70173L18.5233 6.52218C18.8333 7.46009 19 8.46105 19 9.5C19 13.0159 17.0896 16.0852 14.2535 17.727L13.5064 18.1588L12.641 16.6647L13.3881 16.232C14.5695 15.5496 15.5504 14.5682 16.2323 13.3864C16.9142 12.2047 17.273 10.8643 17.2727 9.5C17.2738 8.67209 17.1426 7.84933 16.8841 7.06282L16.6129 6.24236L18.253 5.70173ZM9.5 7.77273C9.0419 7.77273 8.60256 7.95471 8.27863 8.27863C7.95471 8.60256 7.77273 9.0419 7.77273 9.5C7.77273 9.9581 7.95471 10.3974 8.27863 10.7214C8.60256 11.0453 9.0419 11.2273 9.5 11.2273C9.9581 11.2273 10.3974 11.0453 10.7214 10.7214C11.0453 10.3974 11.2273 9.9581 11.2273 9.5C11.2273 9.0419 11.0453 8.60256 10.7214 8.27863C10.3974 7.95471 9.9581 7.77273 9.5 7.77273Z" fill="#1476FE"/>
</svg>
