<svg width="105" height="31" viewBox="0 0 105 31" fill="none" xmlns="http://www.w3.org/2000/svg">
<path d="M45.2912 15.368C45.2912 14.2587 45.5312 13.272 46.0112 12.408C46.4912 11.5333 47.1579 10.856 48.0112 10.376C48.8752 9.88533 49.8512 9.64 50.9392 9.64C52.2725 9.64 53.4139 9.992 54.3632 10.696C55.3125 11.4 55.9472 12.36 56.2672 13.576H53.2592C53.0352 13.1067 52.7152 12.7493 52.2992 12.504C51.8939 12.2587 51.4299 12.136 50.9072 12.136C50.0645 12.136 49.3819 12.4293 48.8592 13.016C48.3365 13.6027 48.0752 14.3867 48.0752 15.368C48.0752 16.3493 48.3365 17.1333 48.8592 17.72C49.3819 18.3067 50.0645 18.6 50.9072 18.6C51.4299 18.6 51.8939 18.4773 52.2992 18.232C52.7152 17.9867 53.0352 17.6293 53.2592 17.16H56.2672C55.9472 18.376 55.3125 19.336 54.3632 20.04C53.4139 20.7333 52.2725 21.08 50.9392 21.08C49.8512 21.08 48.8752 20.84 48.0112 20.36C47.1579 19.8693 46.4912 19.192 46.0112 18.328C45.5312 17.464 45.2912 16.4773 45.2912 15.368ZM66.0227 9.768V11.96H63.0467V21H60.3107V11.96H57.3347V9.768H66.0227ZM73.1238 21L70.7878 16.76H70.1318V21H67.3958V9.768H71.9878C72.8731 9.768 73.6251 9.92267 74.2438 10.232C74.8731 10.5413 75.3425 10.968 75.6518 11.512C75.9611 12.0453 76.1158 12.6427 76.1158 13.304C76.1158 14.0507 75.9025 14.7173 75.4758 15.304C75.0598 15.8907 74.4411 16.3067 73.6198 16.552L76.2118 21H73.1238ZM70.1318 14.824H71.8278C72.3291 14.824 72.7025 14.7013 72.9478 14.456C73.2038 14.2107 73.3318 13.864 73.3318 13.416C73.3318 12.9893 73.2038 12.6533 72.9478 12.408C72.7025 12.1627 72.3291 12.04 71.8278 12.04H70.1318V14.824ZM80.5693 18.888H84.1533V21H77.8333V9.768H80.5693V18.888ZM93.5703 16.632H90.7863V19.48H88.1943V16.632H85.4103V14.184H88.1943V11.32H90.7863V14.184H93.5703V16.632ZM103.585 9.768V11.96H100.609V21H97.8732V11.96H94.8972V9.768H103.585Z" fill="#1476FF"/>
<g opacity="0.64">
<path d="M24.4288 9.70326L20.3274 24.1955L25.9876 27.2864L30.6791 9.02789L37.0072 8.3441L39.9656 0.999886L13.149 3.89755L9.7756 11.2866L24.4288 9.70326ZM7.60966 16.0093L2.29958 26.6L9.075 29.5703L14.029 18.8406L7.60966 16.0093Z" fill="#4DD1FF"/>
<path d="M24.4288 9.70326L20.3274 24.1955L25.9876 27.2864L30.6791 9.02789L37.0072 8.3441L39.9656 0.999886L13.149 3.89755L9.7756 11.2866L24.4288 9.70326ZM7.60966 16.0093L2.29958 26.6L9.075 29.5703L14.029 18.8406L7.60966 16.0093Z" stroke="#1A75F9"/>
</g>
<path d="M26.8407 8.84947L22.6702 23.5861L28.4259 26.7291L33.1964 8.1627L39.6312 7.46739L42.6395 -0.000670446L15.3707 2.94586L11.9404 10.4595L26.8407 8.84947ZM9.73799 15.2618L4.33836 26.0311L11.228 29.0516L16.2655 18.1409L9.73799 15.2618Z" fill="#1A75F9"/>
<path d="M26.8407 8.84947L22.6702 23.5861L28.4259 26.7291L33.1964 8.1627L39.6312 7.46739L42.6395 -0.000670446L15.3707 2.94586L11.9404 10.4595L26.8407 8.84947ZM9.73799 15.2618L4.33836 26.0311L11.228 29.0516L16.2655 18.1409L9.73799 15.2618Z" stroke="#29B94F"/>
</svg>
