<svg width="19" height="21" viewBox="0 0 19 21" fill="none" xmlns="http://www.w3.org/2000/svg">
<path d="M9.375 7C8.47989 7 7.62145 7.35558 6.98852 7.98852C6.35558 8.62145 6 9.47989 6 10.375C6 11.2701 6.35558 12.1286 6.98852 12.7615C7.62145 13.3944 8.47989 13.75 9.375 13.75C10.2701 13.75 11.1286 13.3944 11.7615 12.7615C12.3944 12.1286 12.75 11.2701 12.75 10.375C12.75 9.47989 12.3944 8.62145 11.7615 7.98852C11.1286 7.35558 10.2701 7 9.375 7Z" fill="#A2A3A8"/>
<path fill-rule="evenodd" clip-rule="evenodd" d="M10.2512 0.194678C10.0214 0.0670018 9.76286 0 9.5 0C9.23714 0 8.97861 0.0670018 8.74884 0.194678L0.795349 4.61328C0.554249 4.74725 0.353366 4.94327 0.21352 5.181C0.0736738 5.41874 -4.63367e-05 5.68956 2.18508e-08 5.96538V14.7363C2.18508e-08 15.2986 0.304883 15.8156 0.795349 16.0884L8.74884 20.507C8.97861 20.6347 9.23714 20.7017 9.5 20.7017C9.76286 20.7017 10.0214 20.6347 10.2512 20.507L18.2046 16.0884C18.4456 15.9545 18.6464 15.7587 18.7862 15.5212C18.926 15.2836 18.9998 15.013 19 14.7374V5.96538C19 5.68956 18.9263 5.41874 18.7865 5.181C18.6466 4.94327 18.4457 4.74725 18.2046 4.61328L10.2512 0.194678ZM4.25291 10.3508C4.25291 8.95923 4.80572 7.62461 5.78974 6.64059C6.77377 5.65657 8.10838 5.10375 9.5 5.10375C10.8916 5.10375 12.2262 5.65657 13.2103 6.64059C14.1943 7.62461 14.7471 8.95923 14.7471 10.3508C14.7471 11.7425 14.1943 13.0771 13.2103 14.0611C12.2262 15.0451 10.8916 15.5979 9.5 15.5979C8.10838 15.5979 6.77377 15.0451 5.78974 14.0611C4.80572 13.0771 4.25291 11.7425 4.25291 10.3508Z" fill="#A2A3A8"/>
</svg>
