<svg width="21" height="23" viewBox="0 0 21 23" fill="none" xmlns="http://www.w3.org/2000/svg">
<path d="M0 2.7062C0 1.98847 0.316204 1.30014 0.879052 0.792628C1.4419 0.285117 2.20529 0 3.00127 0H15.0064C15.8023 0 16.5657 0.285117 17.1286 0.792628C17.6914 1.30014 18.0076 1.98847 18.0076 2.7062V16.0789L16.507 17.4455V2.7062C16.507 2.34734 16.3489 2.00317 16.0675 1.74941C15.786 1.49566 15.4044 1.3531 15.0064 1.3531H3.00127C2.60328 1.3531 2.22159 1.49566 1.94016 1.74941C1.65874 2.00317 1.50064 2.34734 1.50064 2.7062V18.9434C1.50064 19.3023 1.65874 19.6464 1.94016 19.9002C2.22159 20.1539 2.60328 20.2965 3.00127 20.2965H9.13137C9.23792 20.5671 9.40899 20.8229 9.64759 21.0407L10.3094 21.6496H3.00127C2.20529 21.6496 1.4419 21.3645 0.879052 20.857C0.316204 20.3495 0 19.6611 0 18.9434V2.7062ZM6.00254 4.73585C6.00254 5.09472 5.84444 5.43888 5.56302 5.69264C5.28159 5.94639 4.8999 6.08895 4.50191 6.08895C4.10391 6.08895 3.72222 5.94639 3.4408 5.69264C3.15937 5.43888 3.00127 5.09472 3.00127 4.73585C3.00127 4.37699 3.15937 4.03282 3.4408 3.77907C3.72222 3.52531 4.10391 3.38275 4.50191 3.38275C4.8999 3.38275 5.28159 3.52531 5.56302 3.77907C5.84444 4.03282 6.00254 4.37699 6.00254 4.73585ZM8.2535 4.0593C8.0545 4.0593 7.86365 4.13058 7.72294 4.25746C7.58223 4.38434 7.50318 4.55642 7.50318 4.73585C7.50318 4.91528 7.58223 5.08737 7.72294 5.21424C7.86365 5.34112 8.0545 5.4124 8.2535 5.4124H14.256C14.455 5.4124 14.6459 5.34112 14.7866 5.21424C14.9273 5.08737 15.0064 4.91528 15.0064 4.73585C15.0064 4.55642 14.9273 4.38434 14.7866 4.25746C14.6459 4.13058 14.455 4.0593 14.256 4.0593H8.2535ZM8.2535 9.4717C8.0545 9.4717 7.86365 9.54298 7.72294 9.66986C7.58223 9.79674 7.50318 9.96882 7.50318 10.1483C7.50318 10.3277 7.58223 10.4998 7.72294 10.6266C7.86365 10.7535 8.0545 10.8248 8.2535 10.8248H14.256C14.455 10.8248 14.6459 10.7535 14.7866 10.6266C14.9273 10.4998 15.0064 10.3277 15.0064 10.1483C15.0064 9.96882 14.9273 9.79674 14.7866 9.66986C14.6459 9.54298 14.455 9.4717 14.256 9.4717H8.2535ZM7.50318 15.5607C7.50318 15.3812 7.58223 15.2091 7.72294 15.0823C7.86365 14.9554 8.0545 14.8841 8.2535 14.8841H14.256C14.455 14.8841 14.6459 14.9554 14.7866 15.0823C14.9273 15.2091 15.0064 15.3812 15.0064 15.5607C15.0064 15.7401 14.9273 15.9122 14.7866 16.039C14.6459 16.1659 14.455 16.2372 14.256 16.2372H8.2535C8.0545 16.2372 7.86365 16.1659 7.72294 16.039C7.58223 15.9122 7.50318 15.7401 7.50318 15.5607ZM4.50191 11.5014C4.8999 11.5014 5.28159 11.3588 5.56302 11.105C5.84444 10.8513 6.00254 10.5071 6.00254 10.1483C6.00254 9.78939 5.84444 9.44522 5.56302 9.19147C5.28159 8.93771 4.8999 8.79515 4.50191 8.79515C4.10391 8.79515 3.72222 8.93771 3.4408 9.19147C3.15937 9.44522 3.00127 9.78939 3.00127 10.1483C3.00127 10.5071 3.15937 10.8513 3.4408 11.105C3.72222 11.3588 4.10391 11.5014 4.50191 11.5014ZM4.50191 16.9138C4.8999 16.9138 5.28159 16.7712 5.56302 16.5174C5.84444 16.2637 6.00254 15.9195 6.00254 15.5607C6.00254 15.2018 5.84444 14.8576 5.56302 14.6039C5.28159 14.3501 4.8999 14.2076 4.50191 14.2076C4.10391 14.2076 3.72222 14.3501 3.4408 14.6039C3.15937 14.8576 3.00127 15.2018 3.00127 15.5607C3.00127 15.9195 3.15937 16.2637 3.4408 16.5174C3.72222 16.7712 4.10391 16.9138 4.50191 16.9138ZM20.7913 17.39C20.9275 17.2619 21.0024 17.0907 20.9999 16.9133C20.9974 16.7358 20.9177 16.5664 20.778 16.4414C20.6382 16.3165 20.4496 16.246 20.2528 16.2453C20.056 16.2446 19.8668 16.3136 19.7259 16.4375L14.259 21.4169L11.7905 19.1464C11.7219 19.0815 11.6397 19.0295 11.5486 18.9935C11.4576 18.9575 11.3595 18.9381 11.2601 18.9366C11.1606 18.9351 11.0619 18.9514 10.9695 18.9846C10.8771 19.0178 10.793 19.0672 10.722 19.1299C10.651 19.1927 10.5945 19.2676 10.5559 19.3502C10.5173 19.4328 10.4972 19.5215 10.497 19.6112C10.4967 19.7008 10.5162 19.7897 10.5543 19.8725C10.5924 19.9553 10.6484 20.0304 10.719 20.0935L13.6138 22.7564C13.6973 22.8333 13.7971 22.8945 13.9071 22.9363C14.0171 22.9781 14.1353 22.9997 14.2547 23C14.3741 23.0002 14.4923 22.9791 14.6026 22.9377C14.7128 22.8964 14.8128 22.8357 14.8968 22.7591L20.7913 17.39Z" fill="#A2A3A8"/>
</svg>
