<svg width="19" height="19" viewBox="0 0 19 19" fill="none" xmlns="http://www.w3.org/2000/svg">
<path d="M0 9.51687C0 7.79574 0.430284 6.20115 1.28242 4.74156C2.13455 3.28197 3.29041 2.12611 4.75 1.27398C6.20959 0.421847 7.79574 0 9.50844 0C10.7909 0 12.0226 0.253108 13.1954 0.750888C14.3681 1.24867 15.3721 1.93206 16.2242 2.77575C17.0764 3.61945 17.7513 4.63188 18.2491 5.81305C18.7469 6.99423 19 8.21758 19 9.51687C19 10.7993 18.7469 12.0311 18.2491 13.2038C17.7513 14.3766 17.0679 15.389 16.2242 16.2327C15.3805 17.0764 14.3681 17.7513 13.1954 18.2491C12.0226 18.7469 10.7993 19 9.50844 19C8.21758 19 6.97735 18.7469 5.80462 18.2491C4.63188 17.7513 3.61945 17.0679 2.76732 16.2242C1.91519 15.3805 1.24867 14.3681 0.742451 13.2038C0.236234 12.0395 0 10.8077 0 9.51687ZM2.09236 9.51687C2.09236 11.5164 2.81794 13.2544 4.27753 14.7309C5.73712 16.1905 7.47513 16.9161 9.50844 16.9161C10.8415 16.9161 12.0817 16.587 13.2123 15.9205C14.3428 15.254 15.254 14.3597 15.9205 13.2207C16.587 12.0817 16.9245 10.8499 16.9245 9.51687C16.9245 8.18384 16.587 6.9436 15.9205 5.80462C15.254 4.66563 14.3512 3.76288 13.2123 3.09636C12.0733 2.42984 10.8415 2.1008 9.50844 2.1008C8.1754 2.1008 6.93517 2.42984 5.80462 3.09636C4.67407 3.76288 3.76288 4.66563 3.08792 5.80462C2.41297 6.9436 2.09236 8.18384 2.09236 9.51687ZM8.77442 9.51687V3.89787C8.77442 3.70382 8.84192 3.53508 8.97691 3.40009C9.1119 3.2651 9.28064 3.1976 9.47469 3.1976C9.66874 3.1976 9.83748 3.2651 9.97247 3.40009C10.1075 3.53508 10.175 3.70382 10.175 3.89787V8.80817H13.3641C13.5582 8.80817 13.7269 8.87567 13.8619 9.01066C13.9969 9.14565 14.0644 9.31439 14.0644 9.50844C14.0644 9.69405 13.9969 9.86279 13.8619 10.0062C13.7269 10.1496 13.5582 10.2171 13.3641 10.2171H9.61812C9.59281 10.2256 9.54218 10.2256 9.46625 10.2256C9.3735 10.2273 9.28137 10.21 9.19555 10.1747C9.10973 10.1395 9.03203 10.0871 8.96723 10.0207C8.90242 9.9543 8.85189 9.87536 8.81873 9.78872C8.78557 9.70207 8.77049 9.60956 8.77442 9.51687Z" fill="#A2A3A8"/>
</svg>
